<svg xmlns="http://www.w3.org/2000/svg" viewBox="0 0 150 150" width="150" height="150">
  <defs>
    <linearGradient id="tile" x1="0" y1="0" x2="1" y2="1">
      <stop offset="0" stop-color="#2e6f40"/>
      <stop offset="1" stop-color="#265c36"/>
    </linearGradient>
  </defs>
  <rect x="39" y="14" width="72" height="72" rx="18" fill="url(#tile)"/>
  <g transform="translate(55 30) scale(1.7)" fill="none" stroke="#ffffff" stroke-width="2" stroke-linecap="round" stroke-linejoin="round">
    <path d="M17 21a1 1 0 0 0 1-1v-5.35c0-.457.316-.844.727-1.041a4 4 0 0 0-2.134-7.589 5 5 0 0 0-9.186 0 4 4 0 0 0-2.134 7.588c.411.198.727.585.727 1.041V20a1 1 0 0 0 1 1z"/>
    <path d="M6 17h12"/>
  </g>
  <text x="75" y="118" text-anchor="middle" font-family="system-ui, -apple-system, sans-serif" font-size="20" font-weight="700" fill="#1f2937">Seu Sócio</text>
</svg>
